<svg width="172" height="46" viewBox="0 0 172 46" fill="none" xmlns="http://www.w3.org/2000/svg">
<rect x="8.1748" y="0.325989" width="156.034" height="1.7568" fill="#D380FF"/>
<rect x="8.1748" y="44.2432" width="156.034" height="1.7568" fill="#D380FF"/>
<rect x="164.212" y="2.08496" width="2.91652" height="1.7568" fill="#D380FF"/>
<rect width="2.91652" height="1.7568" transform="matrix(-1 0 0 1 8.1748 2.08496)" fill="#D380FF"/>
<rect x="167.13" y="3.84094" width="1.45826" height="1.7568" fill="#D380FF"/>
<rect width="1.45826" height="1.7568" transform="matrix(-1 0 0 1 5.2627 3.84094)" fill="#D380FF"/>
<rect x="168.585" y="5.59381" width="1.45826" height="1.7568" fill="#D380FF"/>
<rect width="1.45826" height="1.7568" transform="matrix(-1 0 0 1 3.80762 5.59381)" fill="#D380FF"/>
<rect x="170.043" y="7.35284" width="1.45826" height="31.6224" fill="#D380FF"/>
<rect width="1.45826" height="31.6224" transform="matrix(-1 0 0 1 2.34424 7.35284)" fill="#D380FF"/>
<rect x="168.585" y="38.9753" width="1.45826" height="1.7568" fill="#D380FF"/>
<rect width="1.45826" height="1.7568" transform="matrix(-1 0 0 1 3.80762 38.9753)" fill="#D380FF"/>
<rect x="167.13" y="40.7344" width="1.45826" height="1.7568" fill="#D380FF"/>
<rect width="1.45826" height="1.7568" transform="matrix(-1 0 0 1 5.2627 40.7344)" fill="#D380FF"/>
<rect x="164.212" y="42.4872" width="2.91652" height="1.7568" fill="#D380FF"/>
<rect width="2.91652" height="1.7568" transform="matrix(-1 0 0 1 8.1748 42.4872)" fill="#D380FF"/>
<rect x="8.1748" y="2.08496" width="156.034" height="42.1632" fill="#951BD6"/>
<rect x="164.212" y="3.84094" width="2.91652" height="38.6496" fill="#951BD6"/>
<rect x="167.13" y="5.59381" width="1.45826" height="35.136" fill="#951BD6"/>
<rect x="168.585" y="7.35284" width="1.45826" height="31.6224" fill="#951BD6"/>
<rect x="2.34424" y="7.35284" width="1.45826" height="31.6224" fill="#951BD6"/>
<rect x="3.80762" y="5.59381" width="1.45826" height="35.136" fill="#951BD6"/>
<rect x="5.2627" y="3.84094" width="2.91652" height="38.6496" fill="#951BD6"/>
<rect x="11.728" y="4.22223" width="148.662" height="1.44678" fill="#420463"/>
<rect x="11.728" y="40.3914" width="148.662" height="1.44678" fill="#420463"/>
<rect x="160.385" y="5.67084" width="2.77873" height="1.44678" fill="#420463"/>
<rect width="2.77873" height="1.44678" transform="matrix(-1 0 0 1 11.728 5.67084)" fill="#420463"/>
<rect x="163.167" y="7.11334" width="1.38936" height="1.44678" fill="#420463"/>
<rect width="1.38936" height="1.44678" transform="matrix(-1 0 0 1 8.94678 7.11334)" fill="#420463"/>
<rect x="164.555" y="8.56189" width="1.38936" height="1.44678" fill="#420463"/>
<rect width="1.38936" height="1.44678" transform="matrix(-1 0 0 1 7.56201 8.56189)" fill="#420463"/>
<rect x="165.945" y="10.0106" width="1.38936" height="26.042" fill="#420463"/>
<rect width="1.38936" height="26.042" transform="matrix(-1 0 0 1 6.1709 10.0106)" fill="#420463"/>
<rect x="164.555" y="36.0486" width="1.38936" height="1.44678" fill="#420463"/>
<rect width="1.38936" height="1.44678" transform="matrix(-1 0 0 1 7.56201 36.0486)" fill="#420463"/>
<rect x="163.167" y="37.4973" width="1.38936" height="1.44678" fill="#420463"/>
<rect width="1.38936" height="1.44678" transform="matrix(-1 0 0 1 8.94678 37.4973)" fill="#420463"/>
<rect x="160.385" y="38.9459" width="2.77873" height="1.44678" fill="#420463"/>
<rect width="2.77873" height="1.44678" transform="matrix(-1 0 0 1 11.728 38.9459)" fill="#420463"/>
<rect x="11.728" y="5.67084" width="148.662" height="34.7226" fill="#28033D"/>
<rect x="160.385" y="7.11334" width="2.77873" height="31.8291" fill="#28033D"/>
<rect x="163.167" y="8.56189" width="1.38936" height="28.9355" fill="#28033D"/>
<rect x="164.555" y="10.0106" width="1.38936" height="26.042" fill="#28033D"/>
<rect x="6.1709" y="10.0106" width="1.38936" height="26.042" fill="#28033D"/>
<rect x="7.56201" y="8.56189" width="1.38936" height="28.9355" fill="#28033D"/>
<rect x="8.94678" y="7.11334" width="2.77873" height="31.8291" fill="#28033D"/>
</svg>
