<svg width="172" height="46" viewBox="0 0 172 46" fill="none" xmlns="http://www.w3.org/2000/svg">
<rect x="7.98145" y="3.05176e-05" width="156.034" height="1.7568" fill="#D380FF"/>
<rect x="7.98145" y="43.9173" width="156.034" height="1.7568" fill="#D380FF"/>
<rect x="164.019" y="1.75905" width="2.91652" height="1.7568" fill="#D380FF"/>
<rect width="2.91652" height="1.7568" transform="matrix(-1 0 0 1 7.98145 1.75905)" fill="#D380FF"/>
<rect x="166.937" y="3.515" width="1.45826" height="1.7568" fill="#D380FF"/>
<rect width="1.45826" height="1.7568" transform="matrix(-1 0 0 1 5.06934 3.515)" fill="#D380FF"/>
<rect x="168.392" y="5.2679" width="1.45826" height="1.7568" fill="#D380FF"/>
<rect width="1.45826" height="1.7568" transform="matrix(-1 0 0 1 3.61426 5.2679)" fill="#D380FF"/>
<rect x="169.85" y="7.02692" width="1.45826" height="31.6224" fill="#D380FF"/>
<rect width="1.45826" height="31.6224" transform="matrix(-1 0 0 1 2.15088 7.02692)" fill="#D380FF"/>
<rect x="168.392" y="38.6494" width="1.45826" height="1.7568" fill="#D380FF"/>
<rect width="1.45826" height="1.7568" transform="matrix(-1 0 0 1 3.61426 38.6494)" fill="#D380FF"/>
<rect x="166.937" y="40.4084" width="1.45826" height="1.7568" fill="#D380FF"/>
<rect width="1.45826" height="1.7568" transform="matrix(-1 0 0 1 5.06934 40.4084)" fill="#D380FF"/>
<rect x="164.019" y="42.1613" width="2.91652" height="1.7568" fill="#D380FF"/>
<rect width="2.91652" height="1.7568" transform="matrix(-1 0 0 1 7.98145 42.1613)" fill="#D380FF"/>
<rect x="7.98145" y="1.75905" width="156.034" height="42.1632" fill="#951BD6"/>
<rect x="164.019" y="3.515" width="2.91652" height="38.6496" fill="#951BD6"/>
<rect x="166.937" y="5.2679" width="1.45826" height="35.136" fill="#951BD6"/>
<rect x="168.392" y="7.02692" width="1.45826" height="31.6224" fill="#951BD6"/>
<rect x="2.15088" y="7.02692" width="1.45826" height="31.6224" fill="#951BD6"/>
<rect x="3.61426" y="5.2679" width="1.45826" height="35.136" fill="#951BD6"/>
<rect x="5.06934" y="3.515" width="2.91652" height="38.6496" fill="#951BD6"/>
<rect x="11.5347" y="3.89632" width="148.662" height="1.44678" fill="#420463"/>
<rect x="11.5347" y="40.0655" width="148.662" height="1.44678" fill="#420463"/>
<rect x="160.192" y="5.34491" width="2.77873" height="1.44678" fill="#420463"/>
<rect width="2.77873" height="1.44678" transform="matrix(-1 0 0 1 11.5347 5.34491)" fill="#420463"/>
<rect x="162.974" y="6.78743" width="1.38936" height="1.44678" fill="#420463"/>
<rect width="1.38936" height="1.44678" transform="matrix(-1 0 0 1 8.75342 6.78743)" fill="#420463"/>
<rect x="164.361" y="8.23601" width="1.38936" height="1.44678" fill="#420463"/>
<rect width="1.38936" height="1.44678" transform="matrix(-1 0 0 1 7.36865 8.23601)" fill="#420463"/>
<rect x="165.752" y="9.68462" width="1.38936" height="26.042" fill="#420463"/>
<rect width="1.38936" height="26.042" transform="matrix(-1 0 0 1 5.97754 9.68462)" fill="#420463"/>
<rect x="164.361" y="35.7227" width="1.38936" height="1.44678" fill="#420463"/>
<rect width="1.38936" height="1.44678" transform="matrix(-1 0 0 1 7.36865 35.7227)" fill="#420463"/>
<rect x="162.974" y="37.1713" width="1.38936" height="1.44678" fill="#420463"/>
<rect width="1.38936" height="1.44678" transform="matrix(-1 0 0 1 8.75342 37.1713)" fill="#420463"/>
<rect x="160.192" y="38.6199" width="2.77873" height="1.44678" fill="#420463"/>
<rect width="2.77873" height="1.44678" transform="matrix(-1 0 0 1 11.5347 38.6199)" fill="#420463"/>
<rect x="11.5347" y="5.34491" width="148.662" height="34.7226" fill="#28033D"/>
<rect x="160.192" y="6.78743" width="2.77873" height="31.8291" fill="#28033D"/>
<rect x="162.974" y="8.23601" width="1.38936" height="28.9355" fill="#28033D"/>
<rect x="164.361" y="9.68462" width="1.38936" height="26.042" fill="#28033D"/>
<rect x="5.97754" y="9.68462" width="1.38936" height="26.042" fill="#28033D"/>
<rect x="7.36865" y="8.23601" width="1.38936" height="28.9355" fill="#28033D"/>
<rect x="8.75342" y="6.78743" width="2.77873" height="31.8291" fill="#28033D"/>
</svg>
