<svg width="103" height="46" viewBox="0 0 103 46" fill="none" xmlns="http://www.w3.org/2000/svg">
<rect x="7" width="90" height="2" fill="#D380FF"/>
<rect x="7" y="44" width="90" height="2" fill="#D380FF"/>
<rect width="2.91652" height="1.7568" transform="matrix(-1 0 0 1 7.28906 1.75903)" fill="#D380FF"/>
<rect width="1.45826" height="1.7568" transform="matrix(-1 0 0 1 4.37695 3.51489)" fill="#D380FF"/>
<rect width="1.45826" height="1.7568" transform="matrix(-1 0 0 1 2.92188 5.26782)" fill="#D380FF"/>
<rect width="1.45826" height="31.6224" transform="matrix(-1 0 0 1 1.4585 7.02686)" fill="#D380FF"/>
<rect width="1.45826" height="1.7568" transform="matrix(-1 0 0 1 2.92188 38.6494)" fill="#D380FF"/>
<rect width="1.45826" height="1.7568" transform="matrix(-1 0 0 1 4.37695 40.4084)" fill="#D380FF"/>
<rect x="95.3262" y="1.75903" width="2.91652" height="1.7568" fill="#D380FF"/>
<rect x="98.2446" y="3.51489" width="1.45826" height="1.7568" fill="#D380FF"/>
<rect x="99.6992" y="5.26782" width="1.45826" height="1.7568" fill="#D380FF"/>
<rect x="101.157" y="7.02686" width="1.45826" height="31.6224" fill="#D380FF"/>
<rect x="99.6992" y="38.6494" width="1.45826" height="1.7568" fill="#D380FF"/>
<rect x="98.2446" y="40.4084" width="1.45826" height="1.7568" fill="#D380FF"/>
<rect x="95.3262" y="42.1614" width="2.91652" height="1.7568" fill="#D380FF"/>
<rect width="2.91652" height="1.7568" transform="matrix(-1 0 0 1 7.28906 42.1614)" fill="#D380FF"/>
<rect x="7" y="2" width="90" height="42" fill="#951BD6"/>
<rect x="95.3262" y="3.51489" width="2.91652" height="38.6496" fill="#951BD6"/>
<rect x="98.2446" y="5.26782" width="1.45826" height="35.136" fill="#951BD6"/>
<rect x="99.6992" y="7.02686" width="1.45826" height="31.6224" fill="#951BD6"/>
<rect x="1.4585" y="7.02686" width="1.45826" height="31.6224" fill="#951BD6"/>
<rect x="2.92188" y="5.26782" width="1.45826" height="35.136" fill="#951BD6"/>
<rect x="4.37695" y="3.51489" width="2.91652" height="38.6496" fill="#951BD6"/>
<rect x="11" y="4" width="81" height="1" fill="#420463"/>
<rect x="11" y="40" width="81" height="2" fill="#420463"/>
<rect width="3" height="2" transform="matrix(-1 0 0 1 11 5)" fill="#420463"/>
<rect width="1" height="1" transform="matrix(-1 0 0 1 8 7)" fill="#420463"/>
<rect width="2" height="2" transform="matrix(-1 0 0 1 7 8)" fill="#420463"/>
<rect width="1" height="26" transform="matrix(-1 0 0 1 5 10)" fill="#420463"/>
<rect width="2" height="1" transform="matrix(-1 0 0 1 7 36)" fill="#420463"/>
<rect width="1" height="2" transform="matrix(-1 0 0 1 8 37)" fill="#420463"/>
<rect x="91.3447" y="5.34473" width="2.77382" height="1.44678" fill="#420463"/>
<rect x="94.1216" y="6.78735" width="1.38691" height="1.44678" fill="#420463"/>
<rect x="95.5068" y="8.23584" width="1.38691" height="1.44678" fill="#420463"/>
<rect x="96.895" y="9.68457" width="1.38691" height="26.042" fill="#420463"/>
<rect x="95.5068" y="35.7227" width="1.38691" height="1.44678" fill="#420463"/>
<rect x="94.1216" y="37.1711" width="1.38691" height="1.44678" fill="#420463"/>
<rect x="91.3447" y="38.6199" width="2.77382" height="1.44678" fill="#420463"/>
<rect width="3" height="1" transform="matrix(-1 0 0 1 11 39)" fill="#420463"/>
<rect x="11" y="5" width="81" height="35" fill="#28033D"/>
<rect x="91.3447" y="6.78735" width="2.77382" height="31.8291" fill="#28033D"/>
<rect x="94.1216" y="8.23584" width="1.38691" height="28.9355" fill="#28033D"/>
<rect x="95.5068" y="9.68457" width="1.38691" height="26.042" fill="#28033D"/>
<rect x="5" y="10" width="2" height="26" fill="#28033D"/>
<rect x="7" y="8" width="1" height="29" fill="#28033D"/>
<rect x="8" y="7" width="4" height="32" fill="#28033D"/>
</svg>
