<svg width="171" height="46" viewBox="0 0 171 46" fill="none" xmlns="http://www.w3.org/2000/svg">
<rect x="7.67383" y="0.102295" width="156.034" height="1.7568" fill="#D380FF"/>
<rect x="7.67383" y="44.0195" width="156.034" height="1.7568" fill="#D380FF"/>
<rect x="163.711" y="1.86133" width="2.91652" height="1.7568" fill="#D380FF"/>
<rect width="2.91652" height="1.7568" transform="matrix(-1 0 0 1 7.67383 1.86133)" fill="#D380FF"/>
<rect x="166.629" y="3.61719" width="1.45826" height="1.7568" fill="#D380FF"/>
<rect width="1.45826" height="1.7568" transform="matrix(-1 0 0 1 4.76172 3.61719)" fill="#D380FF"/>
<rect x="168.084" y="5.37012" width="1.45826" height="1.7568" fill="#D380FF"/>
<rect width="1.45826" height="1.7568" transform="matrix(-1 0 0 1 3.30664 5.37012)" fill="#D380FF"/>
<rect x="169.542" y="7.12915" width="1.45826" height="31.6224" fill="#D380FF"/>
<rect width="1.45826" height="31.6224" transform="matrix(-1 0 0 1 1.84326 7.12915)" fill="#D380FF"/>
<rect x="168.084" y="38.7517" width="1.45826" height="1.7568" fill="#D380FF"/>
<rect width="1.45826" height="1.7568" transform="matrix(-1 0 0 1 3.30664 38.7517)" fill="#D380FF"/>
<rect x="166.629" y="40.5107" width="1.45826" height="1.7568" fill="#D380FF"/>
<rect width="1.45826" height="1.7568" transform="matrix(-1 0 0 1 4.76172 40.5107)" fill="#D380FF"/>
<rect x="163.711" y="42.2637" width="2.91652" height="1.7568" fill="#D380FF"/>
<rect width="2.91652" height="1.7568" transform="matrix(-1 0 0 1 7.67383 42.2637)" fill="#D380FF"/>
<rect x="7.67383" y="1.86133" width="156.034" height="42.1632" fill="#951BD6"/>
<rect x="163.711" y="3.61719" width="2.91652" height="38.6496" fill="#951BD6"/>
<rect x="166.629" y="5.37012" width="1.45826" height="35.136" fill="#951BD6"/>
<rect x="168.084" y="7.12915" width="1.45826" height="31.6224" fill="#951BD6"/>
<rect x="1.84326" y="7.12915" width="1.45826" height="31.6224" fill="#951BD6"/>
<rect x="3.30664" y="5.37012" width="1.45826" height="35.136" fill="#951BD6"/>
<rect x="4.76172" y="3.61719" width="2.91652" height="38.6496" fill="#951BD6"/>
<rect x="11.2271" y="3.99854" width="148.662" height="1.44678" fill="#420463"/>
<rect x="11.2271" y="40.1677" width="148.662" height="1.44678" fill="#420463"/>
<rect x="159.884" y="5.44702" width="2.77873" height="1.44678" fill="#420463"/>
<rect width="2.77873" height="1.44678" transform="matrix(-1 0 0 1 11.2271 5.44702)" fill="#420463"/>
<rect x="162.666" y="6.88965" width="1.38936" height="1.44678" fill="#420463"/>
<rect width="1.38936" height="1.44678" transform="matrix(-1 0 0 1 8.4458 6.88965)" fill="#420463"/>
<rect x="164.054" y="8.33813" width="1.38936" height="1.44678" fill="#420463"/>
<rect width="1.38936" height="1.44678" transform="matrix(-1 0 0 1 7.06104 8.33813)" fill="#420463"/>
<rect x="165.444" y="9.78687" width="1.38936" height="26.042" fill="#420463"/>
<rect width="1.38936" height="26.042" transform="matrix(-1 0 0 1 5.66992 9.78687)" fill="#420463"/>
<rect x="164.054" y="35.825" width="1.38936" height="1.44678" fill="#420463"/>
<rect width="1.38936" height="1.44678" transform="matrix(-1 0 0 1 7.06104 35.825)" fill="#420463"/>
<rect x="162.666" y="37.2734" width="1.38936" height="1.44678" fill="#420463"/>
<rect width="1.38936" height="1.44678" transform="matrix(-1 0 0 1 8.4458 37.2734)" fill="#420463"/>
<rect x="159.884" y="38.7222" width="2.77873" height="1.44678" fill="#420463"/>
<rect width="2.77873" height="1.44678" transform="matrix(-1 0 0 1 11.2271 38.7222)" fill="#420463"/>
<rect x="11.2271" y="5.44702" width="148.662" height="34.7226" fill="#28033D"/>
<rect x="159.884" y="6.88965" width="2.77873" height="31.8291" fill="#28033D"/>
<rect x="162.666" y="8.33813" width="1.38936" height="28.9355" fill="#28033D"/>
<rect x="164.054" y="9.78687" width="1.38936" height="26.042" fill="#28033D"/>
<rect x="5.66992" y="9.78687" width="1.38936" height="26.042" fill="#28033D"/>
<rect x="7.06104" y="8.33813" width="1.38936" height="28.9355" fill="#28033D"/>
<rect x="8.4458" y="6.88965" width="2.77873" height="31.8291" fill="#28033D"/>
</svg>
